<svg width="3840" height="452" viewBox="0 0 3840 452" fill="none" xmlns="http://www.w3.org/2000/svg">
<path fill-rule="evenodd" clip-rule="evenodd" d="M3840 220.232V166.188H2145.59C2123.5 166.188 2105.59 148.28 2105.59 126.188V126.188C2105.59 104.097 2087.68 86.1882 2065.59 86.1882H1756.5H1615.11C1591.85 86.1882 1573 67.3361 1573 44.0807V44.0807C1573 20.8359 1554.16 1.98802 1530.92 1.97323L1 1V396.188H1519.91C1539.29 396.188 1555 380.476 1555 361.094V361.094C1555 341.712 1570.71 326 1590.09 326H1727.91C1747.29 326 1763 341.712 1763 361.094V361.094C1763 380.476 1778.71 396.188 1798.09 396.188H2127.91C2161.65 396.188 2189 368.835 2189 335.094V335.094C2189 301.353 2216.35 274 2250.09 274H3840L3840 220.232Z" fill="#001E61"/>
<path fill-rule="evenodd" clip-rule="evenodd" d="M1 1.5L1530.97 1.5C1554.18 1.5 1573 20.3191 1573 43.5337V43.5337C1573 66.7482 1591.82 85.5674 1615.03 85.5674H1782.31C1809.75 85.5674 1832 107.815 1832 135.259V135.259C1832 162.703 1809.75 184.951 1782.31 184.951H1744.19C1730.5 184.951 1719.41 196.043 1719.41 209.725V209.725C1719.41 223.408 1708.32 234.5 1694.64 234.5H1691.6C1676.25 234.5 1663.8 246.95 1663.8 262.308V315.5C1663.8 360.235 1627.53 396.5 1582.8 396.5H1V1.5Z" stroke="#FF5100" stroke-width="2"/>
<path fill-rule="evenodd" clip-rule="evenodd" d="M2120 247C2090.18 247 2066 222.823 2066 193C2066 163.177 2090.18 139 2120 139C2149.82 139 2174 163.177 2174 193C2174 222.823 2149.82 247 2120 247Z" stroke="#00319E" stroke-width="2"/>
<path d="M3840 247H1926.48C1871.26 247 1826.48 291.772 1826.48 347V397.5V397.5C1826.48 427.047 1802.53 451 1772.98 451H0" stroke="#00319E" stroke-width="2"/>
<path fill-rule="evenodd" clip-rule="evenodd" d="M3840 138.5H2309.4H2120H3840Z" stroke="#00319E" stroke-width="2"/>
</svg>
