<svg xmlns="http://www.w3.org/2000/svg" width="110" height="32" viewBox="0 0 110 32"><path fill-rule="evenodd" clip-rule="evenodd" d="M28.6441 6.68066C28.6403 6.67525 28.6353 6.66813 28.63 6.66102C28.6283 6.65845 28.6266 6.65603 28.6248 6.65347V6.65361C28.6046 6.62529 28.5793 6.59042 28.5645 6.56978C27.9179 7.70661 26.9996 9.32112 26.0133 11.0536C26.0263 11.0808 26.0391 11.1079 26.0517 11.135C26.7364 12.6119 27.1198 14.2604 27.1198 16.0001C27.1198 22.3306 22.0521 27.4626 15.8004 27.4626C9.54877 27.4626 4.4809 22.3306 4.4809 16.0001C4.4809 9.66956 9.54877 4.53751 15.8004 4.53751C17.8644 4.53751 19.7268 5.05462 21.3929 6.03189C21.28 6.22333 16.0547 15.3933 15.8004 15.8408C15.6915 15.6491 13.2701 11.393 13.2566 11.3699C13.075 11.064 12.8355 11.0499 12.7301 11.0499H8.47756C8.20952 11.0499 8.03466 11.3177 8.18942 11.587C8.78651 12.626 12.972 19.9718 13.2899 20.5108C13.9151 21.4727 14.8174 21.9276 15.8004 21.9355C15.8076 21.9355 15.8148 21.9349 15.8219 21.9347C16.7964 21.9204 17.6903 21.4658 18.3107 20.5108C19.1909 19.0187 27.2018 4.92367 27.2018 4.92367C24.3218 1.84253 20.3205 0 15.8004 0C7.07408 0 0 7.1636 0 16.0001C0 24.8365 7.07408 32 15.8004 32C24.5266 32 31.6007 24.8365 31.6007 16.0001C31.6007 12.5228 30.5044 9.30546 28.6441 6.68094V6.68066ZM88.5614 16.315C88.55 15.4983 88.5054 14.6846 88.2507 13.8977C87.9599 12.9983 87.4494 12.2711 86.6174 11.791C85.924 11.3909 85.1631 11.2166 84.3777 11.1323C84.0379 11.0957 83.6979 11.0746 83.3576 11.0674V11.0657H83.2205C83.1377 11.0648 83.0551 11.0648 82.9723 11.0657H78.6665C78.0899 11.0657 77.6227 11.5728 77.6227 12.1984C77.6227 12.1984 77.6231 20.0967 77.623 20.2617C77.6229 20.2655 77.6227 20.2697 77.6227 20.2736C77.6227 21.1984 78.3136 21.9481 79.1659 21.9481C80.0181 21.9481 80.7184 21.1984 80.7184 20.2736C80.7191 18.853 80.7219 13.8724 80.7219 13.8724C80.7219 13.7568 80.8084 13.663 80.9151 13.663H82.9296C83.0291 13.6596 83.1284 13.6599 83.228 13.663H83.3576C83.5988 13.677 83.84 13.7144 84.0803 13.7635C84.7235 13.8946 85.1598 14.2835 85.316 14.9291C85.3981 15.2691 85.4578 15.6235 85.4612 15.9723C85.4751 17.4879 85.4612 18.7581 85.4612 20.2736C85.4612 21.1984 86.1707 21.9481 87.0229 21.9481C87.8753 21.9481 88.5661 21.1984 88.5661 20.2736C88.5661 20.2362 88.5646 20.1993 88.5624 20.1625C88.5639 19.4514 88.5633 18.9858 88.5633 18.2747C88.5633 17.6215 88.5708 16.9682 88.5614 16.315ZM109.023 11.3172C108.852 11.1402 108.609 11.0516 108.294 11.0516H107.277C106.962 11.0516 106.719 11.1402 106.548 11.3172C106.376 11.4942 106.29 11.742 106.29 12.0607V19.3049C105.696 19.3685 105.168 19.4004 104.707 19.4004C103.637 19.4004 102.881 19.1704 102.441 18.7101C102 18.2499 101.78 17.4212 101.78 16.2245V12.0607C101.78 11.742 101.694 11.4942 101.523 11.3172C101.352 11.1402 101.109 11.0516 100.794 11.0516H99.7872C99.4723 11.0516 99.2276 11.1402 99.0528 11.3172C98.8779 11.4942 98.7906 11.742 98.7906 12.0607V16.4051C98.7906 17.4319 98.9251 18.3028 99.1945 19.0181C99.4636 19.7335 99.8621 20.3034 100.39 20.7282C100.918 21.1531 101.54 21.4613 102.257 21.6524C102.974 21.8436 103.818 21.9391 104.79 21.9391C105.259 21.9391 105.759 21.9179 106.29 21.8755V22.1092C106.29 22.6967 106.074 23.1289 105.64 23.405C105.206 23.6811 104.605 23.8193 103.836 23.8193C103.2 23.8193 102.427 23.7166 101.518 23.5112C101.168 23.433 100.897 23.4705 100.705 23.6228C100.512 23.7749 100.416 24.0281 100.416 24.3823V24.7858C100.416 25.3947 100.696 25.7665 101.256 25.9013C102.249 26.1632 103.213 26.2941 104.151 26.2941C105.682 26.2941 106.92 25.9417 107.864 25.2373C108.808 24.5326 109.28 23.49 109.28 22.1092V12.0607C109.28 11.742 109.194 11.4942 109.023 11.3172ZM96.3833 11.0515H93.4568V9.5751C93.4568 9.25641 93.3711 9.01046 93.1998 8.83681C93.0284 8.66344 92.7855 8.57676 92.4708 8.57676H91.4114C91.0966 8.57676 90.8517 8.66344 90.6771 8.83681C90.5021 9.01046 90.4148 9.25641 90.4148 9.5751V17.7967C90.4148 18.5472 90.5197 19.1951 90.7296 19.7404C90.9393 20.2857 91.2277 20.7214 91.5948 21.0471C91.962 21.3727 92.406 21.6099 92.9269 21.7586C93.448 21.9075 94.0109 21.971 94.6159 21.9497C95.2206 21.9284 95.8694 21.8329 96.5617 21.6631C97.0931 21.5498 97.3589 21.1922 97.3589 20.5903V20.0484C97.3589 19.7793 97.2871 19.581 97.1437 19.4536C97.0004 19.3262 96.7645 19.2625 96.4359 19.2625C96.331 19.2625 96.1386 19.282 95.8589 19.3208C95.579 19.3598 95.3343 19.3792 95.1246 19.3792C94.5372 19.3792 94.1124 19.2555 93.8501 19.0075C93.588 18.7596 93.4568 18.3559 93.4568 17.7967V13.5372H96.3833C96.6981 13.5372 96.9409 13.4506 97.1124 13.2768C97.2837 13.1035 97.3693 12.8574 97.3693 12.5387V12.0607C97.3693 11.742 97.2837 11.4942 97.1124 11.3171C96.9409 11.1402 96.6981 11.0515 96.3833 11.0515ZM72.8116 18.533C72.8116 18.9299 72.7415 19.2128 72.6018 19.3829C72.4616 19.5529 72.175 19.6377 71.7415 19.6377H70.1786C69.5494 19.6377 69.1313 19.5581 68.9251 19.3987C68.7188 19.2395 68.6156 18.9545 68.6156 18.5439C68.6156 18.1188 68.7205 17.8266 68.9305 17.6674C69.1401 17.5081 69.5598 17.4285 70.1892 17.4285H72.8116V18.533ZM74.3585 11.8997C73.9005 11.5705 73.3689 11.3244 72.7642 11.1614C72.1591 10.9986 71.486 10.9172 70.7448 10.9172C69.7658 10.9172 68.682 11.0447 67.4933 11.2996C66.8009 11.4341 66.4547 11.8095 66.4547 12.4255V12.8292C66.4547 13.1762 66.5508 13.4258 66.7432 13.578C66.9354 13.7304 67.2029 13.7746 67.5457 13.7108C68.6295 13.4842 69.5525 13.3709 70.3148 13.3709C71.9791 13.3709 72.8115 13.9445 72.8115 15.0916V15.2722H70.0315C69.3463 15.2722 68.7572 15.3219 68.2641 15.421C67.7711 15.5203 67.334 15.6918 66.9529 15.9361C66.5718 16.1803 66.287 16.5187 66.0981 16.9505C65.9092 17.3825 65.8148 17.9135 65.8148 18.5439C65.8148 19.7548 66.1662 20.601 66.869 21.0825C67.5717 21.564 68.6259 21.8047 70.0315 21.8047H72.4757C73.6436 21.8047 74.4896 21.564 75.0142 21.0825C75.5386 20.601 75.8007 19.8009 75.8007 18.6819V15.0916C75.8007 14.3836 75.6751 13.7569 75.4233 13.2116C75.1715 12.6665 74.8164 12.2289 74.3585 11.8997ZM62.9667 6.51582H61.8968C61.5822 6.51582 61.3392 6.60435 61.168 6.78128C60.9965 6.95848 60.9109 7.20615 60.9109 7.52484V20.7492C60.9109 21.0679 60.9965 21.3141 61.168 21.4875C61.3392 21.6612 61.5822 21.7477 61.8968 21.7477H62.9667C63.2816 21.7477 63.5243 21.6612 63.6958 21.4875C63.8672 21.3141 63.9528 21.0679 63.9528 20.7492V7.52484C63.9528 7.20615 63.8672 6.95848 63.6958 6.78128C63.5243 6.60435 63.2816 6.51582 62.9667 6.51582ZM55.611 18.7781C55.2161 19.2562 54.6093 19.495 53.7912 19.495C52.973 19.495 52.3681 19.2544 51.9766 18.773C51.5849 18.2915 51.3891 17.5338 51.3891 16.4997C51.3891 15.4588 51.5849 14.6993 51.9766 14.2214C52.3681 13.7434 52.973 13.5043 53.7912 13.5043C54.6093 13.5043 55.2161 13.7434 55.611 14.2214C56.0062 14.6993 56.2038 15.4588 56.2038 16.4997C56.2038 17.5406 56.0062 18.3001 55.611 18.7781ZM53.7913 10.9549C52.043 10.9549 50.7004 11.4348 49.7634 12.3943C48.8262 13.3538 48.3578 14.7224 48.3578 16.4996C48.3578 18.2701 48.8262 19.6349 49.7634 20.5944C50.7004 21.554 52.043 22.0336 53.7913 22.0336C55.5395 22.0336 56.8819 21.554 57.8191 20.5944C58.7561 19.6349 59.2247 18.2701 59.2247 16.4996C59.2247 14.7224 58.7561 13.3538 57.8191 12.3943C56.8819 11.4348 55.5395 10.9549 53.7913 10.9549ZM46.7415 11.0516H45.6506C45.0771 11.0516 44.71 11.3314 44.5492 11.8908L42.7135 18.1471C42.5805 18.5719 42.4512 18.85 42.3254 18.9809C42.1994 19.112 42.0403 19.1774 41.848 19.1774C41.6556 19.1774 41.4983 19.112 41.3762 18.9809C41.2538 18.85 41.126 18.5719 40.9932 18.1471L39.168 11.8908C39.0071 11.3314 38.6367 11.0516 38.0562 11.0516H36.9757C36.6191 11.0516 36.3655 11.1562 36.2153 11.3648C36.0649 11.5738 36.0456 11.8519 36.1576 12.1989L38.2975 18.795C38.6819 20.013 39.1243 20.8415 39.6244 21.2805C40.1244 21.7198 40.8674 21.9391 41.8534 21.9391C42.8463 21.9391 43.5911 21.7179 44.0876 21.2754C44.584 20.8329 45.0247 20.0059 45.4093 18.795L47.5597 12.1989C47.6714 11.8519 47.6522 11.5738 47.502 11.3648C47.3514 11.1562 47.0981 11.0516 46.7415 11.0516Z"></path></svg>